# xmcd CD database file
#
# Track frame offsets:
#	150
#	12263
#	25906
#	38805
#	53207
#	64112
#	78693
#	92959
#	105986
#	121039
#	132597
#	146264
#	158743
#	172396
#	184771
#	196127
#	209817
#	222424
#	238547
#	250704
#	263505
#	281241
#	290859
#	303499
#	316604
#
# Disc length: 4383 seconds
#
# Revision: 0
# Processed by: cddbd v1.5.2PL0 Copyright (c) Steve Scherf et al.
# Submitted via: CDex 1.79
#
DISCID=73111d19
DTITLE=National Blues Museum - From the Beginning Vol 1 Disc 2
DYEAR=1900
DGENRE=Blues
TTITLE0=Rock Awhile
TTITLE1=Downhearted Blues
TTITLE2=It's All Over Now
TTITLE3=So Glad I'm Living
TTITLE4=You Got Me Walkin' and Talkin'
TTITLE5=Somebody Done Changed the Lock On My Door
TTITLE6=I Almost Lost My Mind
TTITLE7=Jimmy's Blues
TTITLE8=California Blues
TTITLE9=Easy On Your Heels
TTITLE10=Garfield Avenue Blues
TTITLE11=Old Maid Boogie
TTITLE12=Last Time Blues
TTITLE13=Gone Dead On You Blues
TTITLE14=Howling Woman
TTITLE15=M and O Blues Pt. 1
TTITLE16=My Daddy Rocks Me
TTITLE17=Old New Orleans Blues
TTITLE18=Be-Baba-Leba
TTITLE19=Hard Time Blues
TTITLE20=Judgement Day
TTITLE21=Motherless Children
TTITLE22=Bottle It Up and Go
TTITLE23=Kansas City Blues
TTITLE24=East Chicago Blues
EXTD=
EXTT0=
EXTT1=
EXTT2=
EXTT3=
EXTT4=
EXTT5=
EXTT6=
EXTT7=
EXTT8=
EXTT9=
EXTT10=
EXTT11=
EXTT12=
EXTT13=
EXTT14=
EXTT15=
EXTT16=
EXTT17=
EXTT18=
EXTT19=
EXTT20=
EXTT21=
EXTT22=
EXTT23=
EXTT24=
PLAYORDER=
